<svg xmlns="http://www.w3.org/2000/svg" width="256" height="256"><path fill-opacity=".016" d="M0 128.004v128.004l128.25-.254 128.25-.254.254-127.75L257.008 0H0v128.004m.485.496c0 70.4.119 99.053.265 63.672.146-35.38.146-92.98 0-128C.604 29.153.485 58.1.485 128.5" fill="#1976D2" fill-rule="evenodd"/><path fill-opacity=".115" d="M110.636 2.045C82.105 5.24 53.769 19.538 33.986 40.722-11.281 89.194-9.932 165 37.034 211.966c17.147 17.146 40.149 29.331 64.466 34.147 4.147.822 13.318 1.387 22.5 1.387 16.809 0 24.33-1.099 38.146-5.573 42.795-13.859 74.775-50.422 83.363-95.313 2.22-11.599 1.969-33.456-.525-45.691-10.1-49.564-47.994-87.166-98.013-97.258-9.801-1.978-26.497-2.722-36.335-1.62m93.177 112.638c.721.289 1.584.253 1.916-.079.332-.332-.258-.568-1.312-.525-1.165.048-1.402.285-.604.604M140.158 124c0 1.375.227 1.938.504 1.25.278-.687.278-1.812 0-2.5-.277-.687-.504-.125-.504 1.25" fill="#1976D2" fill-rule="evenodd"/><path fill-opacity=".541" d="M27.452 106.265c-.267.696-.366 13.408-.219 28.25L27.5 161.5l4.25.307 4.25.308v-21.166l2.95 1.525c4.107 2.124 12.322 1.94 16.84-.377 13.4-6.872 14.904-23.963 2.945-33.476-4.717-3.753-13.64-4.813-18.806-2.235-3.948 1.969-3.929 1.969-3.929.114 0-1.912-7.822-2.127-8.548-.235m51.29 1.683c-12.566 7.97-11.915 26.816 1.165 33.724 5.504 2.907 12.364 3.07 16.746.398 3.111-1.897 3.159-1.897 3.656.004.394 1.506 1.397 1.926 4.597 1.926H109v-39h-3.95c-2.516 0-4.263.559-4.812 1.539-.774 1.383-1.158 1.383-3.799.006-4.952-2.582-12.335-1.997-17.697 1.403M116 124.557v19.558l4.25-.308 4.25-.307.5-12.65c.419-10.589.81-12.992 2.405-14.75 2.049-2.259 8.364-2.931 10.209-1.086.684.684 1.878-.308 3.68-3.06l2.666-4.073-3.448-1.44c-4.095-1.712-9.843-1.869-12.685-.348-1.477.79-2.344.79-3.134 0-.601-.601-2.803-1.093-4.893-1.093H116v19.557m35.542-17.282c-2.178 1.233-5.312 4.167-6.966 6.521-2.475 3.522-3.013 5.288-3.042 9.991-.045 7.545 2.685 12.75 8.899 16.963 3.953 2.68 5.746 3.25 10.23 3.25 2.99 0 6.764-.687 8.387-1.526l2.95-1.525v3.89c0 9.849-12.079 14.133-19.689 6.983l-2.369-2.225-3.221 3.262-3.221 3.263 3 2.436c4.064 3.3 9.027 5.569 13.494 6.168 4.179.561 11.903-2.371 15.872-6.025 4.68-4.308 5.134-7.061 5.134-31.169V105h-4.5c-3.333 0-4.5.389-4.5 1.5 0 1.85-.1 1.85-3.636.006-4.303-2.244-12.134-1.887-16.822.769m44.958-.942c-4.426 2.012-10.28 8.979-11.067 13.17-2.524 13.455 6.137 24.64 19.08 24.64 4.089 0 5.487.364 5.487 1.428 0 2.722 1.612 1.408 3.801-3.098 1.209-2.489 2.199-4.893 2.199-5.341 0-.448-2.297-2.065-5.105-3.593-4.872-2.651-5.075-2.681-4.433-.659.601 1.895.286 2.12-2.972 2.12-5.007 0-9.49-4.429-9.49-9.376 0-9.696 8.554-14.633 16.723-9.651 3.7 2.256 4.776 5.373 3.945 11.433-.564 4.118-.462 4.322 2.998 5.972 1.97.939 3.69 1.576 3.822 1.415 3.245-3.947 3.421-14.404.336-19.893-3.38-6.012-8.837-9.259-16.18-9.624-3.696-.184-7.339.237-9.144 1.057M39.954 116.75c-2.199 1.965-3.239 3.955-3.644 6.972-.515 3.845-.25 4.538 2.962 7.75 4.711 4.711 10.126 4.931 14.962.61 2.804-2.505 3.266-3.578 3.266-7.582s-.462-5.077-3.266-7.582c-4.437-3.965-9.958-4.03-14.28-.168m43.163-1.119C74.603 121.594 78.837 135 89.235 135c3.176 0 4.642-.677 7.365-3.4 3.686-3.686 4.361-7.397 2.205-12.128-2.309-5.069-10.924-7.178-15.688-3.841m70.806 1.292C151.53 119.316 151 120.69 151 124.5c0 10.002 10.473 14.227 17.6 7.1 2.641-2.641 3.4-4.225 3.4-7.1s-.759-4.459-3.4-7.1c-4.612-4.612-10.355-4.799-14.677-.477" fill="#1976D2" fill-rule="evenodd"/><path fill-opacity=".98" d="M41.686 106.017c-1.548.464-3.46 1.381-4.25 2.036-1.148.953-1.436.866-1.436-.431 0-1.226-.977-1.622-4-1.622h-4v55h8v-10c0-5.5.17-10 .378-10s1.993.675 3.968 1.5c4.59 1.918 8.757 1.902 13.436-.053 11.475-4.794 15.956-17.393 9.875-27.769-4.314-7.362-13.818-11.109-21.971-8.661m39.814.873c-13.514 6.237-15.432 24.351-3.494 32.999 5.75 4.166 11.456 4.885 17.508 2.208 5.653-2.501 5.486-2.482 5.486-.597 0 1.083 1.111 1.5 4 1.5h4v-37h-4c-2.889 0-4 .417-4 1.5 0 1.871.192 1.892-4.5-.5-4.862-2.479-9.789-2.515-15-.11m46.046-.211c-2.057 1.113-3.069 1.253-3.333.46-.209-.627-2.142-1.139-4.296-1.139H116v37h8l.004-11.25c.003-9.337.331-11.787 1.927-14.405 2.182-3.579 6.327-4.958 10.329-3.436 2.323.883 2.824.648 4.605-2.165 2.406-3.8 2.141-4.371-2.651-5.701-4.996-1.388-7.168-1.258-10.668.636m25.954.217c-7.602 3.52-11.5 9.522-11.5 17.709 0 13.192 13.77 22.86 25.55 17.938 1.918-.801 3.799-1.473 4.181-1.493 1.088-.057.57 7.518-.673 9.841-2.897 5.415-11.957 6.453-18.104 2.076l-3.14-2.236-2.596 2.597c-2.508 2.507-2.536 2.664-.811 4.569 2.868 3.169 10.174 6.103 15.197 6.103 5.392 0 12.809-3.641 15.896-7.803 1.846-2.489 2.023-4.529 2.301-26.447l.3-23.75h-4.019c-3.162 0-3.896.32-3.444 1.5.739 1.924.451 1.895-4.779-.478-5.436-2.467-9.231-2.5-14.359-.126m45.12-.713c-5.394 1.498-10.949 7.347-12.609 13.278-3.476 12.414 6.895 25.384 19.496 24.382 3.289-.262 4.623.042 5.062 1.151.414 1.047 1.302.135 2.914-2.994 1.276-2.475 2.108-4.844 1.85-5.264-.258-.421-2.238-1.667-4.401-2.771L207 131.959v2.152c0 1.922-.394 2.087-3.7 1.55-7.9-1.282-12.372-10.002-8.392-16.362 4.51-7.207 12.532-7.978 18.016-1.733 3.198 3.643 3.755 6.517 2.105 10.858-.859 2.259-.633 2.729 1.95 4.065 4.074 2.107 4.676 1.94 5.923-1.638 5.123-14.694-8.9-28.94-24.282-24.668m-156.727 8.314c-5.86 3.185-7.839 11.759-3.877 16.796C44.569 139.625 58 135.118 58 124.588c0-8.717-8.657-14.14-16.107-10.091m41.87.014c-10.015 5.632-5.877 20.889 5.665 20.889 6.604 0 12.463-7.066 11.08-13.363-1.471-6.698-10.779-10.881-16.745-7.526m72 .054c-7.934 4.305-7.404 16.005.903 19.947 3.357 1.593 4.172 1.634 7.704.385 5.025-1.778 7.998-5.716 7.824-10.364-.176-4.684-1.635-7.221-5.508-9.583-3.774-2.301-7.171-2.421-10.923-.385" fill="#1976D2" fill-rule="evenodd"/></svg>